<?xml version="1.0" standalone="no"?><!DOCTYPE svg PUBLIC "-//W3C//DTD SVG 1.1//EN" "http://www.w3.org/Graphics/SVG/1.1/DTD/svg11.dtd"><svg t="1630480338553" class="icon" viewBox="0 0 1024 1024" version="1.1" xmlns="http://www.w3.org/2000/svg" p-id="2186" xmlns:xlink="http://www.w3.org/1999/xlink" width="200" height="200"><defs><style type="text/css"></style></defs><path d="M812.57813333 202.00106667h-154.05511111l69.80266667-69.80266667c12.03768889-12.03768889 12.03768889-28.88817778 0-40.92586667-12.03768889-12.03768889-28.88817778-12.03768889-40.92586667 0L569.45777778 209.22595555H453.91644445L335.96302222 91.28391111c-9.6256-12.03768889-24.07537778-14.4384-38.51377777-7.22488889-2.41208889 0-2.41208889 2.41208889-4.8128 4.8128-12.03768889 12.03768889-12.03768889 28.88817778 0 40.92586667l72.21475555 72.21475556h-154.05511111c-84.25244445 0-154.05511111 69.80266667-154.05511111 154.0551111v382.7256889c0 81.84035555 69.80266667 151.64302222 154.05511111 151.64302222h24.07537778c0 28.88817778 24.07537778 50.55146667 50.55146666 50.55146666s50.55146667-24.07537778 50.55146667-50.55146666H692.224c2.41208889 28.88817778 26.47608889 50.55146667 55.36426667 48.13937778 26.47608889-2.41208889 45.73866667-21.66328889 48.13937778-48.13937778h19.2512c84.25244445 0 154.05511111-69.80266667 154.0551111-154.05511112V353.65546667c-2.40071111-84.25244445-72.21475555-151.6544-156.45582222-151.6544z m-4.8128 594.55715555H220.43306667c-31.28888889 0-55.36426667-26.47608889-57.76497778-57.76497777l-2.41208889-389.95057778c0-31.28888889 26.47608889-57.76497778 57.76497778-57.76497778h587.33226667c31.28888889 0 55.36426667 26.47608889 57.76497777 57.76497778l2.41208889 389.95057778c-2.41208889 33.6896-26.47608889 57.76497778-57.76497778 57.76497777z" fill="#ff7299" p-id="2187"></path><path d="M410.58986667 423.45813333l14.4384 72.21475556-192.56888889 36.10168889-14.4384-72.21475556 192.56888889-36.10168889z m185.344 72.21475556l14.4384-72.21475556 192.56888888 36.10168889-14.4384 72.21475556-192.56888888-36.10168889z m38.51377778 151.64302222c0 2.41208889 0 7.22488889-2.4120889 9.6256-12.03768889 26.47608889-38.51377778 43.32657778-69.80266666 45.73866667-19.2512 0-38.51377778-9.6256-50.55146667-24.07537778-14.4384 14.4384-31.28888889 24.07537778-50.55146667 24.07537778-28.88817778-2.41208889-55.36426667-19.2512-69.80266666-45.73866667 0-2.41208889-2.41208889-4.8128-2.41208889-9.6256 0-9.6256 7.22488889-16.85048889 16.85048889-19.2512h2.41208889c7.22488889 0 12.03768889 2.41208889 14.4384 9.6256 0 0 19.2512 26.47608889 36.10168889 26.47608889 33.70097778 0 33.70097778-28.88817778 52.95217778-50.55146667 21.66328889 24.07537778 21.66328889 50.55146667 52.95217777 50.55146667 21.66328889 0 36.10168889-26.47608889 36.10168889-26.47608889 2.41208889-4.8128 9.6256-9.6256 14.4384-9.6256 9.6256-2.41208889 16.85048889 4.8128 19.2512 14.4384v4.8128h0.03413334z" fill="#ff7299" p-id="2188"></path></svg>