<?xml version="1.0" standalone="no"?><!DOCTYPE svg PUBLIC "-//W3C//DTD SVG 1.1//EN" "http://www.w3.org/Graphics/SVG/1.1/DTD/svg11.dtd"><svg t="1630480292550" class="icon" viewBox="0 0 1024 1024" version="1.1" xmlns="http://www.w3.org/2000/svg" p-id="5901" xmlns:xlink="http://www.w3.org/1999/xlink" width="200" height="200"><defs><style type="text/css"></style></defs><path d="M512 0.8192C229.96992 0.8192 0.8192 229.98016 0.8192 512S229.98016 1023.1808 512 1023.1808 1023.1808 794.01984 1023.1808 512 794.01984 0.8192 512 0.8192z m230.31808 665.11872c-1.16736 1.1776-2.3552 1.1776-3.52256 2.3552-14.10048-3.5328-30.55616-16.45568-37.60128-27.0336-3.52256-3.52256-4.7104-9.40032-10.57792-11.74528 0 21.1456-12.92288 41.12384-22.3232 55.22432-3.5328 4.7104-14.10048 12.93312-14.10048 17.63328 3.52256 2.3552 8.22272 3.52256 12.92288 4.70016 10.57792 4.70016 25.856 12.92288 31.72352 22.3232 2.3552 3.52256 5.87776 7.05536 7.05536 10.57792 16.45568 38.77888-36.43392 48.1792-63.45728 54.05696-27.0336 5.86752-77.55776-10.57792-91.65824-18.80064-8.22272-5.87776-16.45568-18.81088-29.37856-18.81088-3.52256 2.3552-14.10048 1.1776-19.968 1.1776-16.45568 32.90112-102.2464 48.1792-148.0704 30.55616-14.10048-4.7104-43.47904-17.62304-37.60128-39.95648 4.70016-18.80064 19.968-29.37856 35.24608-36.42368 5.87776-3.5328 18.80064-4.7104 22.3232-10.57792-12.92288-9.40032-24.6784-28.20096-30.54592-43.47904-3.52256-8.22272-4.70016-25.856-9.40032-31.73376-8.22272 11.75552-31.73376 36.43392-51.712 32.91136-3.52256-4.7104-7.04512-9.40032-9.39008-15.27808-4.7104-15.27808-2.3552-39.95648 2.3552-54.05696 8.21248-29.37856 16.44544-50.5344 31.72352-71.68 4.70016-7.05536 11.74528-11.75552 16.44544-18.80064-9.40032-9.40032-7.04512-37.61152-1.1776-49.3568 3.5328-8.22272 9.40032-7.05536 10.57792-19.97824-2.3552-3.52256 0-8.22272-1.1776-12.92288-4.70016-21.15584 3.5328-47.0016 9.40032-63.45728 19.97824-52.87936 54.0672-90.48064 104.59136-111.63648 11.74528-4.7104 25.856-8.22272 38.77888-10.57792 5.87776-1.1776 11.74528 0 16.44544-2.3552 118.6816-1.16736 178.61632 61.11232 200.94976 156.29312 3.52256 15.27808 0 35.25632 0 50.5344 27.0336 5.87776 32.90112 59.92448 10.57792 75.20256V512c8.22272 14.10048 18.80064 28.20096 25.84576 43.47904 7.05536 16.45568 9.40032 35.25632 14.10048 55.23456 4.7104 15.26784-2.3552 50.52416-9.40032 55.22432z" fill="#18ACFC" p-id="5902"></path></svg>