<?xml version="1.0" standalone="no"?><!DOCTYPE svg PUBLIC "-//W3C//DTD SVG 1.1//EN" "http://www.w3.org/Graphics/SVG/1.1/DTD/svg11.dtd"><svg t="1630480106513" class="icon" viewBox="0 0 1024 1024" version="1.1" xmlns="http://www.w3.org/2000/svg" p-id="2185" xmlns:xlink="http://www.w3.org/1999/xlink" width="200" height="200"><defs><style type="text/css"></style></defs><path d="M579.584 511.616c-12.8 0.768-22.912 11.264-23.04 24.192 1.28 12.032 11.264 21.248 23.424 21.76 17.536 0 29.696-10.752 29.696-21.76 0-13.44-12.544-24.192-29.696-24.192h-0.384z m-76.8-112.64c15.36 1.024 28.544-10.496 29.696-25.856 0.128-1.152 0.128-2.176 0-3.328 1.024-15.104-10.24-28.16-25.344-29.184-1.408-0.128-2.816-0.128-4.224 0-17.536 0-34.176 10.752-34.176 29.184s16.512 29.184 34.048 29.184zM512 0C229.248 0 0 229.248 0 512s229.248 512 512 512 512-229.248 512-512S794.752 0 512 0z m-96.512 641.664c-28.032-0.256-55.936-4.736-82.56-13.44L248.32 670.848l24.192-71.808c-59.264-41.728-94.464-94.592-94.464-158.464 0-113.536 106.752-200.32 236.928-200.32 115.072 0 217.728 68.352 237.44 165.248-7.296-1.664-14.848-2.432-22.272-2.56-113.536 0-200.96 85.12-200.96 187.648 0.128 16.896 2.432 33.664 6.656 50.048-6.912 0.64-13.952 1.024-20.864 0.768l0.512 0.256z m347.904 81.664l16.64 60.032-63.36-35.84c-24.192 4.992-47.616 12.544-71.808 12.544-111.744 0-200.32-76.672-200.32-171.904s88.448-171.648 200.448-171.648c105.6 0.128 200.96 76.928 200.96 172.032 0 53.376-35.84 100.864-82.56 135.04v-0.256z m-425.728-382.72c-17.536 0-35.84 10.752-35.84 29.184s18.304 29.184 35.84 29.184c15.872 0.512 29.056-11.904 29.696-27.648v-1.536c0.64-15.616-11.648-28.544-27.264-29.184-0.768-0.128-1.536-0.128-2.432 0z m372.864 170.752c-13.056 0.384-23.552 11.136-23.424 24.192 1.024 12.16 11.136 21.632 23.424 21.76 16.64 0 29.184-10.752 29.184-21.76 0-13.44-12.672-24.192-29.184-24.192z" fill="#08BE14" p-id="2186"></path></svg>